<svg id="Layer_1" data-name="Layer 1" xmlns="http://www.w3.org/2000/svg" viewBox="0 0 400 400"><defs><style>.cls-1{fill: none;}</style></defs><title>Clip</title><path class="cls-1" d="M49.94,275.11V63.43H350.75V337H110.9c1.38-.19,2.75-.4,4.13-.57a54.87,54.87,0,0,0,32.86-15.78Q210.76,258,273.4,195.09c9.54-9.6,12.56-21.56,10-34.83-3.13-16-17.47-28.93-33.51-30.33-12.54-1.1-23.27,2.78-32.17,11.74q-14.56,14.67-29.22,29.27-16.83,16.86-33.67,33.69a8.54,8.54,0,0,0-2.84,6.21c0,4.13,6.51,11.62,10.85,12.5,3.33.68,5.93-.54,8.25-2.86q31.55-31.6,63.13-63.16a15.86,15.86,0,0,1,27.19,9.15c.57,5.59-1.42,10.13-5.34,14q-29.12,29-58.18,58.14-32.45,32.43-64.9,64.86c-9.64,9.61-21.21,12.85-34.38,9.53-17.45-4.39-28.68-22.25-25.46-39.89a36.37,36.37,0,0,1,10.49-19.61Q127,210.25,170.27,166.9q32.05-32.06,64.13-64.1C248,89.26,264.53,84,283.39,87.43c30.55,5.5,50,36.2,42.4,66.33a56.41,56.41,0,0,1-15.29,26.55q-56.56,56.52-113.08,113.07c-.54.54-1.09,1.08-1.6,1.65a8,8,0,0,0,.23,11.2c1.34,1.4,2.73,2.76,4.11,4.12,3.8,3.77,8.54,3.81,12.31,0C250.93,272,289.56,233.69,327.77,195c20.07-20.33,26.61-45.13,20.08-72.81-9.14-38.79-47.27-63.82-86.56-57.49a75.69,75.69,0,0,0-42.45,21.62Q143.1,162,67.41,237.72a57.58,57.58,0,0,0-16.09,29C50.71,269.48,50.39,272.31,49.94,275.11Z"/><path style="fill: #fff" d="M49.94,275.11c.45-2.8.77-5.63,1.38-8.41a57.58,57.58,0,0,1,16.09-29Q143.15,162,218.84,86.32A75.69,75.69,0,0,1,261.29,64.7c39.29-6.33,77.42,18.7,86.56,57.49,6.53,27.68,0,52.48-20.08,72.81-38.21,38.69-76.84,77-115.3,115.4-3.77,3.76-8.51,3.72-12.31,0-1.38-1.36-2.77-2.72-4.11-4.12a8,8,0,0,1-.23-11.2c.51-.57,1.06-1.11,1.6-1.65Q254,236.85,310.5,180.31a56.41,56.41,0,0,0,15.29-26.55c7.6-30.13-11.85-60.83-42.4-66.33C264.53,84,248,89.26,234.4,102.8q-32.16,32-64.13,64.1-43.34,43.33-86.66,86.64a36.37,36.37,0,0,0-10.49,19.61c-3.22,17.64,8,35.5,25.46,39.89,13.17,3.32,24.74.08,34.38-9.53q32.49-32.38,64.9-64.86,29.08-29.07,58.18-58.14c3.92-3.91,5.91-8.45,5.34-14a15.86,15.86,0,0,0-27.19-9.15q-31.55,31.59-63.13,63.16c-2.32,2.32-4.92,3.54-8.25,2.86-4.34-.88-10.86-8.37-10.85-12.5a8.54,8.54,0,0,1,2.84-6.21q16.86-16.81,33.67-33.69,14.63-14.62,29.22-29.27c8.9-9,19.63-12.84,32.17-11.74,16,1.4,30.38,14.33,33.51,30.33,2.59,13.27-.43,25.23-10,34.83Q210.81,258,147.89,320.65A54.87,54.87,0,0,1,115,336.43c-1.38.17-2.75.38-4.13.57h-6.43a5.4,5.4,0,0,0-1-.27,50.17,50.17,0,0,1-15-3.12C69,326.22,56.61,312.42,51.5,292.23c-.76-3-1.06-6.1-1.56-9.15Z"/><path class="cls-1" d="M49.94,283.08c.5,3.05.8,6.16,1.56,9.15,5.11,20.19,17.48,34,36.93,41.38a50.17,50.17,0,0,0,15,3.12,5.4,5.4,0,0,1,1,.27H49.94Z"/></svg>
