<svg id="Layer_1" data-name="Layer 1" xmlns="http://www.w3.org/2000/svg" viewBox="0 0 400 400"><defs><style>.cls-1{fill:none;}  .cls-2 { fill: #fff; }</style></defs><title>Person</title><path class="cls-1" d="M55.54,323.48v-270H194.68a7.63,7.63,0,0,1-1.13.25,65.91,65.91,0,0,0-27.69,8.41c-22.47,13.07-36.71,32-39.73,58.31a86.64,86.64,0,0,0,.22,18.7,61.36,61.36,0,0,0,8.09,24.13c12.73,22.41,31.62,36,57.38,39.41a71.55,71.55,0,0,0,32.84-3.54c28.8-9.9,48.56-38,50.17-64.09.58-9.38.2-18.65-2.67-27.72-5.55-17.58-16.34-31.2-31.35-41.6a69,69,0,0,0-29.22-11.45c-2.47-.38-5-.55-7.46-.81H345.34V347.41H55.54V325A33.07,33.07,0,0,1,57.78,328a9.18,9.18,0,0,0,6.34,4.35,447.12,447.12,0,0,0,54.34,9.7c11.87,1.34,23.76,2.62,35.67,3.42,12.37.83,24.77,1.25,37.17,1.5q28.57.57,57.1-1.65c9.22-.71,18.44-1.43,27.62-2.5,9.51-1.11,19-2.38,28.44-4.07,11.78-2.11,23.48-4.7,35.2-7.12a2.12,2.12,0,0,0,1.21-.72,41.4,41.4,0,0,0,3.36-5.19,7.12,7.12,0,0,0,.67-3.8c-.5-4.19-1.19-8.36-1.89-12.52a158.08,158.08,0,0,0-18.31-52.1c-15.57-27.51-37.45-48.2-66.36-61.28-1.63-.74-3.3-1.37-5.06-2.09-1.4,3.82-2.72,7.45-4.1,11.2,1.68.8,3.17,1.55,4.68,2.22a126.62,126.62,0,0,1,55.87,47.9c12.6,19.49,19.67,41,22.55,63.88a1.5,1.5,0,0,1-1.39,1.94c-5.75,1.23-11.48,2.65-17.27,3.69-9.81,1.75-19.63,3.44-29.5,4.81-8.47,1.18-17,2-25.51,2.77q-12,1.08-24,1.7c-7.67.41-15.35.77-23,.75q-21.25-.07-42.52-.66c-8-.23-15.91-.89-23.86-1.53-7.4-.6-14.79-1.28-22.16-2.19-7.89-1-15.79-2.05-23.62-3.45-9.9-1.76-19.73-3.91-29.59-5.87-1.08-.21-1.48-.73-1.32-1.81.54-3.64.93-7.31,1.59-10.93A150.11,150.11,0,0,1,85.4,264.8a127,127,0,0,1,51.11-52.16c4.2-2.34,8.61-4.3,12.93-6.42,2-1,2-1,1.29-3.14s-1.62-4.63-2.46-6.94c-.25-.67-.59-1.31-.91-2-.73.25-1.34.42-1.93.66a139,139,0,0,0-23.74,12.68c-20.24,13.58-35.75,31.41-47.24,52.8a163.33,163.33,0,0,0-18.07,57.4C56.14,319.63,55.82,321.55,55.54,323.48Z"/><path class="cls-2" d="M55.54,323.48c.28-1.93.6-3.85.84-5.79a163.33,163.33,0,0,1,18.07-57.4c11.49-21.39,27-39.22,47.24-52.8a139,139,0,0,1,23.74-12.68c.59-.24,1.2-.41,1.93-.66.32.68.66,1.32.91,2q1.26,3.47,2.46,6.94c.75,2.18.72,2.16-1.29,3.14-4.32,2.12-8.73,4.08-12.93,6.42A127,127,0,0,0,85.4,264.8a150.11,150.11,0,0,0-15.28,43.59c-.66,3.62-1.05,7.29-1.59,10.93-.16,1.08.24,1.6,1.32,1.81,9.86,2,19.69,4.11,29.59,5.87,7.83,1.4,15.73,2.48,23.62,3.45,7.37.91,14.76,1.59,22.16,2.19,7.95.64,15.9,1.3,23.86,1.53q21.25.6,42.52.66c7.67,0,15.35-.34,23-.75q12-.63,24-1.7c8.52-.77,17-1.59,25.51-2.77,9.87-1.37,19.69-3.06,29.5-4.81,5.79-1,11.52-2.46,17.27-3.69a1.5,1.5,0,0,0,1.39-1.94c-2.88-22.93-9.95-44.39-22.55-63.88a126.62,126.62,0,0,0-55.87-47.9c-1.51-.67-3-1.42-4.68-2.22,1.38-3.75,2.7-7.38,4.1-11.2,1.76.72,3.43,1.35,5.06,2.09,28.91,13.08,50.79,33.77,66.36,61.28A158.08,158.08,0,0,1,343,309.44c.7,4.16,1.39,8.33,1.89,12.52a7.12,7.12,0,0,1-.67,3.8,41.4,41.4,0,0,1-3.36,5.19,2.12,2.12,0,0,1-1.21.72c-11.72,2.42-23.42,5-35.2,7.12-9.42,1.69-18.93,3-28.44,4.07-9.18,1.07-18.4,1.79-27.62,2.5q-28.5,2.2-57.1,1.65c-12.4-.25-24.8-.67-37.17-1.5-11.91-.8-23.8-2.08-35.67-3.42a447.12,447.12,0,0,1-54.34-9.7A9.18,9.18,0,0,1,57.78,328,33.07,33.07,0,0,0,55.54,325Z"/><path class="cls-2" d="M204.13,53.47c2.49.26,5,.43,7.46.81a69,69,0,0,1,29.22,11.45c15,10.4,25.8,24,31.35,41.6,2.87,9.07,3.25,18.34,2.67,27.72-1.61,26-21.37,54.19-50.17,64.09a71.55,71.55,0,0,1-32.84,3.54c-25.76-3.38-44.65-17-57.38-39.41a61.36,61.36,0,0,1-8.09-24.13,86.64,86.64,0,0,1-.22-18.7c3-26.29,17.26-45.24,39.73-58.31a65.91,65.91,0,0,1,27.69-8.41,7.63,7.63,0,0,0,1.13-.25ZM201.19,191c32.45,0,61.56-24.71,61.73-62.12.16-36-26.76-63.2-62.62-63.37-31.74-.16-62.31,23.82-62.53,62.74C137.56,163.51,165,191.71,201.19,191Z"/><path class="cls-1" d="M201.19,191c-36.16.69-63.63-27.51-63.42-62.75.22-38.92,30.79-62.9,62.53-62.74,35.86.17,62.78,27.33,62.62,63.37C262.75,166.31,233.64,191.05,201.19,191Z"/></svg>
